<?xml version="1.0" encoding="UTF-8"?>
<svg width="512px" height="512px" viewBox="0 0 512 512" version="1.1" xmlns="http://www.w3.org/2000/svg" xmlns:xlink="http://www.w3.org/1999/xlink">
    <!-- Generator: Sketch 61.2 (89653) - https://sketch.com -->
    <title>Ham</title>
    <desc>Created with Sketch.</desc>
    <defs>
        <linearGradient x1="73.7836353%" y1="50%" x2="4.52830881%" y2="66.2872272%" id="linearGradient-1">
            <stop stop-color="#FFFFFF" stop-opacity="0.5" offset="0%"></stop>
            <stop stop-color="#000000" stop-opacity="0.5" offset="100%"></stop>
        </linearGradient>
        <path d="M296.727475,410.458606 C314.886699,410.458606 343.257638,403.254123 360.429828,399.413793 C380.458439,394.934664 405.593325,382.834962 422.423701,372.742135 C438.505236,363.098372 467.913769,361.587917 476.338017,351.906935 C523.825331,297.335436 458.484574,246.832338 451.358368,226.176684 C416.894288,126.28088 440.333758,76.3268143 365.235736,62.8060183 C352.704058,60.5497902 339.454415,59.4403209 325.540087,59.4403209 C296.136611,59.4403209 265.841453,63.3781256 236.107708,77.123616 C206.532053,90.7960236 175.095591,132.738201 160.398068,152.876524 C148.344453,169.392204 127.172114,176.860473 121.650466,199.054119 C119.729383,206.775695 66.5590854,221.129018 24.6763878,246.167376 C-7.02441034,265.11878 63.317068,267.173542 65.5115769,280.432168 C67.7060858,293.690794 38.0663579,327.159383 78.3765297,337.266183 C130.547853,350.346878 142.898524,343.967192 155.079395,355.588491 C171.552198,371.304557 201.745463,372.489346 228.503059,382.515027 C253.143128,391.747301 274.065058,410.458606 296.727475,410.458606 Z" id="path-2"></path>
        <radialGradient cx="50%" cy="50%" fx="50%" fy="50%" r="45.6348831%" gradientTransform="translate(0.500000,0.500000),scale(0.772876,1.000000),rotate(132.816849),scale(1.000000,1.918153),translate(-0.500000,-0.500000)" id="radialGradient-3">
            <stop stop-color="#FFFFFF" stop-opacity="0.5" offset="0%"></stop>
            <stop stop-color="#FAFAFA" stop-opacity="0.5" offset="29.4684333%"></stop>
            <stop stop-color="#000000" stop-opacity="0.5" offset="100%"></stop>
        </radialGradient>
        <path d="M247.485192,22.8475393 C225.966261,35.9183866 250.906929,66.8245457 269.715544,98.1765121 C284.436091,122.714103 288.026354,147.952309 311.585829,162.289658 C353.014784,187.501654 413.837817,220.996707 453.212243,215.289668 C464.838337,213.60455 477.477353,195.223289 483.598755,188.765546 C488.228474,183.881447 498.076165,185.182833 499.220983,178.424314 C504.716246,145.982612 465.162963,88.1483129 415.342211,52.8323779 C389.579916,34.5705194 355.51055,29.2210905 329.553833,22.8475393 C294.856421,14.327751 269.42957,9.51827002 247.485192,22.8475393 Z" id="path-4"></path>
        <path d="M377.997426,138.498657 C389.430069,138.498657 393.987845,129.242742 402.287638,121.4447 C409.82513,114.362875 421.654991,109.07962 421.654991,101.719799 C421.654991,86.2558264 400.057889,91.9651592 378.242641,91.9651592 C356.427393,91.9651592 338.497426,95.0346844 338.497426,110.498657 C338.497426,115.880473 333.695758,130.345663 337.408363,134.61321 C344.363464,142.607922 363.774383,138.498657 377.997426,138.498657 Z" id="path-5"></path>
    </defs>
    <g id="Ham" stroke="none" stroke-width="1" fill="none" fill-rule="evenodd">
        <path d="M128.578125,341.960938 C172.951162,319.481208 201.033194,311.828865 212.824219,319.003906 C224.615244,326.178948 224.615244,351.391188 212.824219,394.640625 L151.007813,453.769531 C158.612957,460.196263 158.612957,467.334464 151.007813,475.184136 C139.600096,486.958644 112.814008,504.738606 96.5849167,493.589844 C80.3558256,482.441081 102.269957,462.534464 86.1992187,453.769531 C70.1284806,445.004599 29.0410371,480.303437 18.4559159,475.184136 C7.87079482,470.064835 12.0062379,435.222402 28.0585937,424.68928 C38.7601643,417.667199 53.2627685,413.844991 71.5664062,413.222656 L128.578125,341.960938 Z" id="Path-2" stroke="#000000" stroke-width="14" fill="#FFFFFF" fill-rule="nonzero" stroke-linecap="square"></path>
        <g id="Oval" stroke-linecap="square" fill-rule="nonzero" transform="translate(254.992957, 234.949463) rotate(320.000000) translate(-254.992957, -234.949463) ">
            <use fill="#C49151" xlink:href="#path-2"></use>
            <use fill="url(#linearGradient-1)" style="mix-blend-mode: multiply;" xlink:href="#path-2"></use>
            <use stroke="#000000" stroke-width="14" xlink:href="#path-2"></use>
        </g>
        <g id="Path" fill-rule="nonzero">
            <use fill="#F99C9C" xlink:href="#path-4"></use>
            <use fill-opacity="0.6" fill="url(#radialGradient-3)" style="mix-blend-mode: multiply;" xlink:href="#path-4"></use>
            <path stroke="#FFFFFF" stroke-width="18" d="M490.549003,175.501756 C493.811596,147.294296 457.244391,93.5669758 410.137481,60.1747741 C399.287894,52.4839366 386.114843,46.7339567 369.462378,41.8637186 C363.944964,40.2500765 358.154473,38.7559483 351.165469,37.1031324 C347.412316,36.2155565 334.977452,33.3835329 333.360786,33.0072542 C331.173924,32.4982626 329.234619,32.0365032 327.407677,31.5879061 C306.285948,26.4015637 294.331399,24.1371471 283.334856,23.6451482 C270.7821,23.0835224 260.962993,25.1911543 252.157505,30.5397098 C247.613259,33.2999375 246.905745,37.2915518 250.087662,46.0283434 C253.095476,54.2870917 256.204896,59.6174016 270.586045,82.4606514 C273.398353,86.9277671 275.458328,90.2545136 277.433259,93.5465146 C278.359825,95.0910027 279.264894,96.6706957 280.15746,98.2970675 C282.089936,101.818292 283.92064,105.471491 285.921621,109.731381 C286.698689,111.385683 287.47592,113.075022 288.454278,115.227609 C288.678921,115.72187 290.369314,119.452887 290.858594,120.526179 C299.558304,139.610011 305.329391,147.946686 316.264589,154.601407 C342.693244,170.684824 365.278986,182.953711 386.705466,192.10802 C413.638641,203.615024 435.831087,208.714895 451.921248,206.382742 C452.477786,206.302076 453.189104,206.071519 454.038495,205.662877 C457.360793,204.064518 461.481636,200.45025 466.397953,194.967553 C468.311429,192.833637 475.531504,184.193789 477.066969,182.573957 C479.840376,179.648165 482.730039,178.194972 487.36303,176.61312 C487.67952,176.50506 487.994987,176.398956 488.572381,176.205279 C489.461856,175.906138 490.097438,175.678812 490.549003,175.501756 Z" stroke-linejoin="square"></path>
            <use stroke="#000000" stroke-width="13" xlink:href="#path-4"></use>
        </g>
        <g id="Oval" fill-rule="nonzero" transform="translate(378.827496, 115.244804) rotate(34.000000) translate(-378.827496, -115.244804) ">
            <path stroke="#000000" stroke-width="15" d="M343.616984,130.569375 C343.617282,130.570556 343.617581,130.571731 343.61788,130.5729 C343.617341,130.570793 343.616057,130.566694 343.613919,130.560601 Z M343.547805,130.140302 C345.87223,131.936134 351.987691,132.446513 364.071841,131.66784 C364.608597,131.633253 365.097033,131.601143 365.974546,131.543003 C372.203242,131.130317 374.774425,130.998657 377.997426,130.998657 C381.912373,130.998657 384.483242,129.451628 388.953236,124.652579 C389.575877,123.984102 392.666123,120.560766 393.602681,119.559279 C394.844568,118.231296 395.984447,117.075847 397.152128,115.978756 C399.158127,114.094027 401.248996,112.432297 404.466222,110.06067 C404.896499,109.743484 406.606356,108.490419 407.026075,108.180892 C407.961775,107.490848 408.68491,106.947395 409.34632,106.434051 C412.887504,103.685614 414.154991,102.089534 414.154991,101.719799 C414.154991,99.7979082 413.92221,99.5502154 411.329729,98.9905194 C407.800794,98.2286505 403.837994,98.2660203 392.345036,98.9373551 C385.873062,99.3154006 382.327932,99.4651592 378.242641,99.4651592 C366.638249,99.4651592 358.334539,100.390869 352.820054,102.456394 C347.853031,104.31686 345.997426,106.57684 345.997426,110.498657 C345.997426,112.774391 345.901484,113.367692 344.625284,120.314957 C344.4021,121.52991 344.239466,122.453512 344.095684,123.338935 C343.676024,125.923229 343.477564,127.877443 343.501937,129.317817 C343.507461,129.644272 343.524404,129.920462 343.547805,130.140302 Z" stroke-linejoin="square" fill="#FFFFFF" fill-rule="evenodd"></path>
            <path stroke="#FFFFFF" stroke-width="9" d="M377.997426,133.998657 C382.92179,133.998657 386.166261,132.046286 391.148481,126.697303 C391.793122,126.005208 394.880689,122.584839 395.793841,121.608381 C396.994599,120.324378 398.090473,119.213535 399.206332,118.165134 C401.103884,116.382295 403.118143,114.781452 406.246325,112.475465 C406.67201,112.161665 408.382178,110.908371 408.806644,110.595343 C409.760458,109.89194 410.501776,109.334822 411.185716,108.803993 C415.42073,105.51705 417.154991,103.333185 417.154991,101.719799 C417.154991,98.2822775 415.854247,96.898209 411.962819,96.0580807 C408.04981,95.2132933 403.99918,95.2514913 392.170096,95.9424601 C385.753878,96.3172488 382.252499,96.4651592 378.242641,96.4651592 C353.89903,96.4651592 342.997426,100.548503 342.997426,110.498657 C342.997426,112.492513 342.889844,113.157796 341.674656,119.772932 C341.448054,121.006489 341.282155,121.948636 341.134473,122.858069 C340.310621,127.93141 340.365184,131.155896 340.80342,131.659637 C343.586935,134.859217 350.150036,135.571149 364.264753,134.661631 C364.803825,134.626894 365.293652,134.594693 366.172878,134.53644 C372.331857,134.128373 374.865077,133.998657 377.997426,133.998657 Z" stroke-linejoin="square"></path>
            <use stroke="#000000" stroke-width="9" xlink:href="#path-5"></use>
        </g>
    </g>
</svg>